<svg width="80" height="16" xmlns="http://www.w3.org/2000/svg">
 <g>
  <title>background</title>
  <rect x="-1" y="-1" width="82" height="18" id="canvas_background" fill="none"/>
 </g>

 <g>
  <title>Layer 1</title>
  <path fill="#FFFFFF" d="m40,6c-3.2,0 -6,2.5 -6,7c1.1,-1.7 2.4,-3 6,-3l0,3l6,-5l-6,-5l0,3z" id="svg_2"/>
  <path fill="#FFFFFF" d="m10.6515,2.3645c-0.3975,-0.3975 -0.994,-0.3975 -1.392,0l-6.9615,6.9615c-0.1985,0.199 -0.298,0.3975 -0.298,0.696l0,2.9835c0,0.5965 0.3975,0.9945 0.9945,0.9945l2.983,0c0.2985,0 0.4975,-0.0995 0.6965,-0.2985l6.961,-6.9615c0.398,-0.3975 0.398,-0.994 0,-1.392l-2.9835,-2.9835zm-5.0715,9.6465l-1.5915,0l0,-1.591l5.967,-5.967l1.591,1.591l-5.9665,5.967z" id="svg_5"/>
  <g stroke="null" id="svg_9">
   <path stroke="null" id="svg_8" fill-rule="evenodd" clip-rule="evenodd" fill="#3A589B" d="m22.856442,11.11884l1.336644,0l0,-2.962948l0.891691,0l0.118126,-1.02093l-1.009816,0l0.001387,-0.511191c0,-0.266124 0.027748,-0.408989 0.444755,-0.408989l0.557331,0l0,-1.021112l-0.891889,0c-1.071258,0 -1.448229,0.495398 -1.448229,1.328262l0,0.61303l-0.667727,0l0,1.021112l0.667727,0l0,2.962767zm0.839367,2.483343c-3.283737,0 -5.945926,-2.438324 -5.945926,-5.445929c0,-3.007786 2.662189,-5.445929 5.945926,-5.445929s5.945926,2.438142 5.945926,5.445929c0,3.007605 -2.662189,5.445929 -5.945926,5.445929z"/>
  </g>
  <g stroke="null" id="svg_15">
   <path stroke="null" id="svg_14" fill-rule="evenodd" clip-rule="evenodd" fill="#D6492F" d="m38.710226,8.336054c0.317224,-0.288552 0.341868,-0.689976 0.341868,-0.915542c0,-0.90639 -0.589496,-2.310389 -1.734183,-2.310389c-0.356852,0 -0.743278,0.163297 -0.966064,0.414524c-0.232841,0.263429 -0.30224,0.601688 -0.30224,0.926309c0,0.843404 0.535081,2.236815 1.724325,2.236815c0.341868,0 0.713507,-0.153428 0.936293,-0.351717zm-5.710226,-0.179807c0,1.32881 0.528969,2.545286 1.405524,3.483977c0.165414,-0.253021 0.421914,-0.501915 0.801636,-0.706486c0.857234,-0.478049 2.011779,-0.541394 2.635974,-0.577463c-0.193213,-0.225566 -0.416196,-0.46459 -0.416196,-0.856683c0,-0.212107 0.069399,-0.338259 0.138798,-0.4872c-0.153584,0.013638 -0.30224,0.027097 -0.441038,0.027097c-1.461714,0 -2.289177,-0.992166 -2.289177,-1.970874c0,-0.577283 0.292382,-1.218629 0.881878,-1.682681c0.787835,-0.589306 1.724325,-0.689976 2.467603,-0.689976l2.839242,0l-0.882075,0.45149l-0.852108,0c0.316829,0.238486 0.976119,0.740581 0.976119,1.695601c0,0.92918 -0.579835,1.366494 -1.154545,1.781198c-0.183355,0.16258 -0.386426,0.338438 -0.386426,0.613352c0,0.275093 0.203071,0.428701 0.356852,0.541394l0.495453,0.351717c0.609606,0.460104 1.159474,0.888445 1.159474,1.75446c0,0.571003 -0.292579,1.144158 -0.863346,1.583805c-0.306972,0.045759 -0.621632,0.069626 -0.942602,0.070523c0.579244,-0.231308 0.879512,-0.654266 0.879512,-1.162821c0,-0.640269 -0.450895,-0.978528 -1.501342,-1.659532c-0.109027,-0.009152 -0.178426,-0.009152 -0.317027,-0.009152c-0.123814,0 -0.867092,0.02279 -1.44673,0.198469c-0.30224,0.099235 -1.184118,0.401424 -1.184118,1.294356c0,0.097081 0.011435,0.191112 0.033516,0.281553c-1.453433,-0.980323 -2.394852,-2.553182 -2.394852,-4.326125zm11.381809,-2.057906l0,0c0.086749,0.190753 0.161865,0.387428 0.224561,0.588768c-0.062498,-0.20134 -0.137615,-0.397836 -0.224561,-0.588768l0,0l0,0l0,0zm-5.467133,7.441337c-3.266479,0 -5.914676,-2.410341 -5.914676,-5.38343c0,-2.973269 2.648198,-5.38343 5.914676,-5.38343c2.465829,0 4.57934,1.373313 5.467133,3.325524l0,0l-1.176232,0l0,-1.402204l-0.660275,0l0,1.402204l-1.540576,0l0,0.588768l1.540576,0l0,1.414407l0.660275,0l0,-1.414407l1.400595,0c0.145304,0.466923 0.22318,0.959866 0.22318,1.469138c0,2.973089 -2.648198,5.38343 -5.914676,5.38343z"/>
  </g>
  <g stroke="null" id="svg_21">
   <path stroke="null" id="svg_20" fill-rule="evenodd" clip-rule="evenodd" fill="#598DCA" d="m54.665044,6.097115c-0.510895,0.170021 -0.83374,0.608543 -0.797066,1.088455l0.01229,0.185185l-0.204436,-0.022658c-0.743812,-0.086884 -1.393793,-0.38161 -1.945654,-0.876865l-0.269785,-0.245665l-0.069446,0.181439c-0.147085,0.404446 -0.05306,0.83155 0.253399,1.118784c0.163471,0.158781 0.126602,0.181439 -0.155278,0.086884c-0.098121,-0.030151 -0.183953,-0.052808 -0.192146,-0.041569c-0.028481,0.026582 0.069446,0.370371 0.147085,0.506494c0.106315,0.18911 0.322845,0.374117 0.560053,0.483837l0.20034,0.086884l-0.237013,0.003747c-0.22882,0 -0.237013,0.003747 -0.212434,0.083316c0.081735,0.245665 0.40458,0.506494 0.764294,0.619961l0.253399,0.079212l-0.220627,0.120959c-0.326942,0.174124 -0.711235,0.272247 -1.095527,0.279562c-0.184148,0.003747 -0.33533,0.018911 -0.33533,0.030329c0,0.037644 0.498801,0.249233 0.788873,0.332549c0.870609,0.245665 1.904883,0.139692 2.681467,-0.27974c0.55186,-0.298652 1.103525,-0.89203 1.361216,-1.466675c0.139087,-0.305966 0.277978,-0.865447 0.277978,-1.133591c0,-0.173946 0.01229,-0.196603 0.24111,-0.404446c0.13499,-0.120959 0.261592,-0.253158 0.286171,-0.29098c0.040965,-0.071898 0.036674,-0.071898 -0.171664,-0.007671c-0.347424,0.113466 -0.396583,0.098302 -0.224724,-0.071719c0.126602,-0.120959 0.277978,-0.34022 0.277978,-0.404446c0,-0.01124 -0.061253,0.007493 -0.130894,0.041569c-0.073542,0.037822 -0.237013,0.094555 -0.359714,0.128452l-0.220627,0.064405l-0.20034,-0.124884c-0.110411,-0.067973 -0.265494,-0.143617 -0.347424,-0.166274c-0.208533,-0.052808 -0.527476,-0.045315 -0.715526,0.015165zm-0.812867,7.44256c-3.231962,0 -5.852177,-2.396348 -5.852177,-5.352178c0,-2.956008 2.620215,-5.352178 5.852177,-5.352178s5.852177,2.39617 5.852177,5.352178c0,2.955829 -2.620215,5.352178 -5.852177,5.352178z"/>
  </g>
  <g stroke="null" id="svg_27">
   <path stroke="null" id="svg_26" fill-rule="evenodd" clip-rule="evenodd" fill="#517FA6" d="m70.701599,6.824387l0,-0.001077c0.098449,0 0.197095,0.001794 0.29574,-0.000359c0.12669,-0.002871 0.229846,-0.102285 0.229846,-0.218388c0,-0.172808 0,-0.345796 0,-0.518604c0,-0.123998 -0.107274,-0.222515 -0.242397,-0.222695c-0.188466,0 -0.376931,-0.000179 -0.565397,0c-0.134927,0.000179 -0.242397,0.099055 -0.242397,0.223053c-0.000196,0.171372 -0.000784,0.342745 0.000588,0.514117c0.000196,0.025661 0.005491,0.052219 0.014316,0.076445c0.033928,0.091159 0.125317,0.147147 0.237102,0.147685c0.090801,0 0.181798,-0.000179 0.272599,-0.000179zm-1.818175,0.222336c-0.66365,-0.000359 -1.203161,0.488277 -1.212378,1.092657c-0.00961,0.620889 0.533431,1.112755 1.18453,1.125496c0.677378,0.013279 1.225321,-0.481996 1.239638,-1.084402c0.014709,-0.620889 -0.532842,-1.134109 -1.21179,-1.13375zm-2.344349,0.591998l0,0.014715c0,0.810206 -0.000196,1.620412 0,2.430618c0,0.116462 0.110216,0.216773 0.23769,0.216773c1.404178,0.000179 2.808159,0.000179 4.212337,0c0.128651,0 0.238279,-0.099952 0.238279,-0.217491c0.000196,-0.809129 0,-1.618618 0,-2.427568l0,-0.016868l-0.571085,0c0.080603,0.235794 0.105313,0.475716 0.073739,0.720303c-0.031574,0.244587 -0.117865,0.472127 -0.258086,0.682439s-0.322412,0.384915 -0.545001,0.523628c-0.57736,0.359972 -1.337695,0.391555 -1.950552,0.076804c-0.309664,-0.158811 -0.552846,-0.380429 -0.722681,-0.666289c-0.252791,-0.425829 -0.293191,-0.873013 -0.144928,-1.337064c-0.189839,0 -0.3785,0 -0.569712,0zm4.737923,3.255001c0.031182,-0.004666 0.062364,-0.008793 0.093154,-0.014894c0.244358,-0.047554 0.444003,-0.234 0.491854,-0.458848c0.004903,-0.024584 0.008825,-0.048989 0.01314,-0.073394l0,-4.380676c-0.004118,-0.023867 -0.007845,-0.048092 -0.012747,-0.071959c-0.052559,-0.245305 -0.273775,-0.435699 -0.545197,-0.469794c-0.011375,-0.001256 -0.022161,-0.003589 -0.033339,-0.005383l-4.800679,0c-0.028829,0.004845 -0.05805,0.008434 -0.086486,0.014356c-0.265146,0.05527 -0.461261,0.250509 -0.499111,0.496352c-0.001569,0.010229 -0.003922,0.020457 -0.005687,0.030686l0,4.392519c0.005491,0.027635 0.009806,0.055808 0.01667,0.083443c0.058638,0.23723 0.279855,0.421164 0.543236,0.452208c0.012551,0.001436 0.025495,0.003768 0.038242,0.005383l4.786951,0zm-2.393574,2.645955c-3.24922,0 -5.883426,-2.410341 -5.883426,-5.383429c0,-2.973268 2.634206,-5.383429 5.883426,-5.383429s5.883426,2.410161 5.883426,5.383429c0,2.973089 -2.634206,5.383429 -5.883426,5.383429z"/>
  </g>
 </g>
</svg>