<svg width="32" height="16" xmlns="http://www.w3.org/2000/svg">

 <g>
  <title>background</title>
  <rect fill="none" id="canvas_background" height="402" width="582" y="-1" x="-1"/>
 </g>
 <g>
  <title>Layer 1</title>
  <g id="svg_1">
   <polygon id="svg_2" points="8,11.4 2.6,6 4,4.6 8,8.6 12,4.6 13.4,6 " fill="#000000"/>
  </g>
  <g id="svg_3">
   <path id="svg_4" d="m28.7,11.3c0.9,-1.2 1.4,-2.6 1.4,-4.2c0,-3.9 -3.1,-7.1 -7,-7.1s-7.1,3.2 -7.1,7.1c0,3.9 3.2,7.1 7.1,7.1c1.6,0 3.1,-0.5 4.2,-1.4l3,3c0.2,0.2 0.5,0.3 0.7,0.3s0.5,-0.1 0.7,-0.3c0.4,-0.4 0.4,-1 0,-1.4l-3,-3.1zm-5.6,0.8c-2.8,0 -5.1,-2.2 -5.1,-5s2.3,-5.1 5.1,-5.1s5.1,2.3 5.1,5.1s-2.3,5 -5.1,5z" fill="#000000"/>
  </g>
 </g>
</svg>