<svg width="80" height="16" xmlns="http://www.w3.org/2000/svg">
 <g>
  <title>background</title>
  <rect x="-1" y="-1" width="82" height="18" id="canvas_background" fill="none"/>
 </g>

 <g>
  <title>Layer 1</title>
  <path fill="#FFFFFF" d="m10.6515,2.3645c-0.3975,-0.3975 -0.994,-0.3975 -1.392,0l-6.9615,6.9615c-0.1985,0.199 -0.298,0.3975 -0.298,0.696l0,2.9835c0,0.5965 0.3975,0.9945 0.9945,0.9945l2.983,0c0.2985,0 0.4975,-0.0995 0.6965,-0.2985l6.961,-6.9615c0.398,-0.3975 0.398,-0.994 0,-1.392l-2.9835,-2.9835zm-5.0715,9.6465l-1.5915,0l0,-1.591l5.967,-5.967l1.591,1.591l-5.9665,5.967z" id="svg_5"/>


  <g id="svg_84">
   <path stroke="null" fill="#ffffff" id="svg_83" d="m25.866666,5.515688l-2.25052,0l0,-1.279309c0,-0.480442 0.367384,-0.592452 0.626142,-0.592452c0.25817,0 1.58817,0 1.58817,0l0,-2.11211l-2.18723,-0.007399c-2.428031,0 -2.980578,1.575279 -2.980578,2.583367l0,1.407903l-1.404184,0l0,2.176407l1.404184,0c0,2.793098 0,6.158492 0,6.158492l2.953496,0c0,0 0,-3.398563 0,-6.158492l1.99294,0l0.25758,-2.176407z"/>
  </g>
  <g stroke="null" id="svg_92">
   <g stroke="null" transform="matrix(1.3341418673692438,0,0,3.496973577690071,8.987714916031127,-0.9907037231752782) " id="svg_89">
    <path fill="#ffffff" stroke="null" id="svg_90" d="m26.418247,1.820599l-1.191535,0l0,-0.487345c0,-0.037184 -0.073757,-0.067424 -0.164486,-0.067424l-0.339283,0c-0.091364,0 -0.165121,0.03024 -0.165121,0.067424l0,0.487345l-1.191535,0c-0.090729,0 -0.164804,0.030305 -0.164804,0.067553l0,0.138806c0,0.037248 0.074074,0.067424 0.164804,0.067424l1.191535,0l0,0.487604c0,0.037248 0.073757,0.067424 0.165121,0.067424l0.339283,0c0.090729,0 0.164486,-0.030175 0.164486,-0.067424l0,-0.487669l1.191535,0c0.090729,0 0.164804,-0.030175 0.164804,-0.067424l0,-0.138806c0,-0.037248 -0.074074,-0.067488 -0.164804,-0.067488z"/>
    <path fill="#ffffff" stroke="null" id="svg_91" d="m21.937622,2.706208c-0.30122,-0.087569 -0.574987,-0.215989 -0.579753,-0.25543c0,-0.07184 0.015632,-0.106195 0.408172,-0.231719c0.507498,-0.163087 0.786984,-0.377511 0.786984,-0.604065c0,-0.205424 -0.152897,-0.387919 -0.413129,-0.516104l0.201894,0c0.041751,0 0.08274,-0.005322 0.116103,-0.015339l0.563358,-0.167548c0.069967,-0.020581 0.099326,-0.057284 0.072636,-0.090856c-0.026881,-0.033494 -0.102377,-0.056345 -0.188358,-0.056345l-2.519571,0c-0.275674,0 -0.555732,0.019956 -0.830643,0.058771c-0.918149,0.129985 -1.560243,0.451151 -1.560243,0.780848c0,0.467115 0.881545,0.821149 2.059925,0.832262c-0.023068,0.037015 -0.034698,0.073483 -0.034698,0.109246c0,0.071997 0.044421,0.140159 0.135931,0.206051c-0.010676,0 -0.020971,0 -0.03241,0c-1.123283,0 -2.137136,0.226241 -2.52205,0.562902c-0.100279,0.087569 -0.151372,0.176078 -0.151372,0.263491c0,0.084987 0.05319,0.166765 0.157473,0.243614c0.241929,0.177643 0.761438,0.315453 1.463586,0.388232c0.362417,0.037563 0.751906,0.056736 1.156265,0.056736c0.36337,0 0.709773,-0.019251 1.030058,-0.057284c0.998601,-0.119028 1.644317,-0.420787 1.644317,-0.769109c-0.00019,-0.334235 -0.261947,-0.534338 -0.964475,-0.738354zm-3.182065,0.765118c0,-0.243144 0.752478,-0.456394 1.610192,-0.456394l0.023068,0c0.186642,0.000939 0.368709,0.012208 0.54029,0.033807c0.058909,0.016669 0.115722,0.032555 0.170246,0.047815c0.397305,0.111125 0.659824,0.184451 0.732842,0.30215c0.017158,0.029659 0.025737,0.059319 0.025737,0.088039c0,0.302776 -0.550013,0.456238 -1.635358,0.456238c-0.822635,0 -1.467017,-0.207068 -1.467017,-0.471655zm0.780503,-2.297388c0.134024,-0.06284 0.309608,-0.096021 0.506736,-0.096021l0.022305,0.000156c0.556876,0.006731 1.08973,0.261457 1.187722,0.567833c0.055096,0.171539 -0.037939,0.332826 -0.24803,0.431117c-0.134405,0.062997 -0.307511,0.096178 -0.512646,0.096178c0,0 0,0 -0.000381,0l-0.00896,0c-0.545437,-0.006887 -1.08973,-0.271317 -1.18715,-0.577302c-0.054715,-0.171069 0.032981,-0.324844 0.240404,-0.421961z"/>
   </g>
  </g>
  <g stroke="null" id="svg_98">
   <path stroke="null" fill="#ffffff" id="svg_97" d="m60.805086,3.431005c-0.456685,0.217689 -0.94817,0.364528 -1.463863,0.430241c0.526537,-0.338027 0.930265,-0.873462 1.120656,-1.512197c-0.492493,0.313419 -1.037691,0.540843 -1.618445,0.663614c-0.464754,-0.531108 -1.127212,-0.863186 -1.860279,-0.863186c-1.407376,0 -2.548458,1.223657 -2.548458,2.73315c0,0.213903 0.022443,0.422398 0.066069,0.622781c-2.118251,-0.114118 -3.996434,-1.202024 -5.253516,-2.855651c-0.21939,0.403469 -0.344972,0.872921 -0.344972,1.374282c0,0.948098 0.449876,1.784782 1.133769,2.274786c-0.417598,-0.014332 -0.810735,-0.137374 -1.154447,-0.342083c-0.000252,0.011358 -0.000252,0.022986 -0.000252,0.034614c0,1.323984 0.87857,2.428385 2.044617,2.679877c-0.213843,0.062197 -0.439033,0.095729 -0.671536,0.095729c-0.164417,0 -0.324042,-0.017037 -0.479633,-0.049217c0.324546,1.085742 1.265655,1.876185 2.380763,1.898089c-0.872266,0.733113 -1.970982,1.170114 -3.165273,1.170114c-0.205521,0 -0.40852,-0.01298 -0.607989,-0.0384c1.128221,0.775839 2.467763,1.227984 3.906913,1.227984c4.688144,0 7.25148,-4.164492 7.25148,-7.776242c0,-0.118445 -0.00227,-0.236619 -0.007061,-0.353982c0.497789,-0.384539 0.930013,-0.86616 1.271455,-1.414305z"/>
  </g>
  <g stroke="null" id="svg_107">
   <g stroke="null" transform="matrix(0.2262309682081376,0,0,0.21363010538995936,18.185017555891783,26.472020660391802) " id="svg_103">
    <path fill="#ffffff" stroke="null" id="svg_104" d="m233.455497,-101.41526c-7,0 -12.8,5.7 -12.8,12.8s5.7,12.8 12.8,12.8s12.8,-5.8 12.8,-12.8s-5.8,-12.8 -12.8,-12.8zm0,21c-4.5,0 -8.2,-3.7 -8.2,-8.2s3.7,-8.2 8.2,-8.2s8.2,3.7 8.2,8.2s-3.7,8.2 -8.2,8.2z"/>
    <circle fill="#ffffff" stroke="null" id="svg_105" r="2.9" cy="-101.71526" cx="246.755497"/>
    <path fill="#ffffff" stroke="null" id="svg_106" d="m254.255497,-109.21526c-2.6,-2.7 -6.3,-4.1 -10.5,-4.1l-20.6,0c-8.7,0 -14.5,5.8 -14.5,14.5l0,20.5c0,4.3 1.4,8 4.2,10.7c2.7,2.6 6.3,3.9 10.4,3.9l20.4,0c4.3,0 7.9,-1.4 10.5,-3.9c2.7,-2.6 4.1,-6.3 4.1,-10.6l0,-20.6c0,-4.2 -1.4,-7.8 -4,-10.4zm-0.4,31c0,3.1 -1.1,5.6 -2.9,7.3s-4.3,2.6 -7.3,2.6l-20.4,0c-3,0 -5.5,-0.9 -7.3,-2.6c-1.8,-1.8 -2.7,-4.3 -2.7,-7.4l0,-20.5c0,-3 0.9,-5.5 2.7,-7.3c1.7,-1.7 4.3,-2.6 7.3,-2.6l20.6,0c3,0 5.5,0.9 7.3,2.7c1.7,1.8 2.7,4.3 2.7,7.2l0,20.6l0,0z"/>
   </g>
  </g>
 </g>
</svg>