<svg width="240" height="120" xmlns="http://www.w3.org/2000/svg">

 <g>
  <title>background</title>
  <rect fill="none" id="canvas_background" height="402" width="582" y="-1" x="-1"/>
 </g>
 <g>
  <title>Layer 1</title>
  <g id="svg_1">
   <path id="svg_2" d="m217,26l-4,0l0,-3c0,-0.6 -0.4,-1 -1,-1l-7,0c-1.7,0 -3,1.3 -3,3l0,10c0,1.7 1.3,3 3,3l12,0c0.6,0 1,-0.4 1,-1l0,-10c0,-0.6 -0.4,-1 -1,-1zm-13,-1c0,-0.6 0.4,-1 1,-1l6,0l0,2l-7,0l0,-1zm12,11l-11,0c-0.6,0 -1,-0.4 -1,-1l0,-7l8,0l4,0l0,8z" fill="#7D7160"/>
   <rect id="svg_3" height="2" width="2" fill="#D2C9C0" y="31" x="213"/>
  </g>
  <g id="svg_4">
   <path id="svg_5" d="m97,26l-3,0l0,-3c0,-0.6 -0.4,-1 -1,-1l-6,0c-0.6,0 -1,0.4 -1,1l0,3l-3,0c-0.6,0 -1,0.4 -1,1l0,10c0,0.6 0.4,1 1,1l14,0c0.6,0 1,-0.4 1,-1l0,-10c0,-0.6 -0.4,-1 -1,-1zm-9,-2l4,0l0,2l-4,0l0,-2zm8,12l-12,0l0,-8l12,0l0,8z" fill="#7D7160"/>
   <rect id="svg_6" height="3" width="6" fill="#D2C9C0" y="29" x="87"/>
  </g>
  <g id="svg_7">
   <circle id="svg_8" r="2" cy="30" cx="148" fill="#D2C9C0"/>
   <path id="svg_9" d="m152,24l-4,0c-3.3,0 -6,2.7 -6,6s2.7,6 6,6l4,0c3.3,0 6,-2.7 6,-6s-2.7,-6 -6,-6zm0,10l-4,0c-2.2,0 -4,-1.8 -4,-4s1.8,-4 4,-4l4,0c2.2,0 4,1.8 4,4s-1.8,4 -4,4z" fill="#7D7160"/>
  </g>
  <g id="svg_10">
   <path id="svg_11" d="m25,38l10,0c0.6,0 1,-0.4 1,-1l0,-7.5l0.3,0.3c0.2,0.1 0.5,0.2 0.7,0.2c0.3,0 0.6,-0.1 0.8,-0.3c0.4,-0.4 0.3,-1 -0.1,-1.4l-7,-6c-0.4,-0.3 -0.9,-0.3 -1.3,0l-3.4,2.8l0,-1.1c0,-0.6 -0.4,-1 -1,-1c-0.6,0 -1,0.4 -1,1l0,2.8l-1.7,1.4c-0.4,0.4 -0.5,1 -0.1,1.4c0.4,0.4 1,0.5 1.4,0.1l0.4,-0.2l0,7.5c0,0.6 0.4,1 1,1zm1,-10.3l4,-3.4l4,3.5c0,0.1 0,0.1 0,0.2l0,8l-2,0l0,-3c0,-0.6 -0.4,-1 -1,-1l-2,0c-0.6,0 -1,0.4 -1,1l0,3l-2,0l0,-8.3z" fill="#7D7160"/>
   <rect id="svg_12" height="2" width="4" fill="#D2C9C0" y="28" x="28"/>
  </g>
  <g stroke="null" id="svg_13">
   <path stroke="null" id="svg_14" d="m217,86l-4,0l0,-3c0,-0.6 -0.4,-1 -1,-1l-7,0c-1.7,0 -3,1.3 -3,3l0,10c0,1.7 1.3,3 3,3l12,0c0.6,0 1,-0.4 1,-1l0,-10c0,-0.6 -0.4,-1 -1,-1zm-13,-1c0,-0.6 0.4,-1 1,-1l6,0l0,2l-7,0l0,-1zm12,11l-11,0c-0.6,0 -1,-0.4 -1,-1l0,-7l8,0l4,0l0,8z" fill="#07be0f"/>
   <rect stroke="null" id="svg_15" height="2" width="2" fill="#07be0f" y="91" x="213"/>
  </g>
  <g stroke="null" id="svg_16">
   <path stroke="null" id="svg_17" d="m97,86l-3,0l0,-3c0,-0.6 -0.4,-1 -1,-1l-6,0c-0.6,0 -1,0.4 -1,1l0,3l-3,0c-0.6,0 -1,0.4 -1,1l0,10c0,0.6 0.4,1 1,1l14,0c0.6,0 1,-0.4 1,-1l0,-10c0,-0.6 -0.4,-1 -1,-1zm-9,-2l4,0l0,2l-4,0l0,-2zm8,12l-12,0l0,-8l12,0l0,8z" fill="#07be0f"/>
   <rect stroke="null" id="svg_18" height="3" width="6" fill="#07be0f" y="89" x="87"/>
  </g>
  <g stroke="null" id="svg_19">
   <circle stroke="null" id="svg_20" r="2" cy="90" cx="149" fill="#07be0f"/>
   <path stroke="null" id="svg_21" d="m153,84l-4,0c-3.3,0 -6,2.7 -6,6s2.7,6 6,6l4,0c3.3,0 6,-2.7 6,-6s-2.7,-6 -6,-6zm0,10l-4,0c-2.2,0 -4,-1.8 -4,-4s1.8,-4 4,-4l4,0c2.2,0 4,1.8 4,4s-1.8,4 -4,4z" fill="#07be0f"/>
  </g>
  <g id="svg_22">
   <path id="svg_23" d="m25,98l10,0c0.6,0 1,-0.4 1,-1l0,-7.5l0.3,0.3c0.2,0.1 0.5,0.2 0.7,0.2c0.3,0 0.6,-0.1 0.8,-0.3c0.4,-0.4 0.3,-1 -0.1,-1.4l-7,-6c-0.4,-0.3 -0.9,-0.3 -1.3,0l-3.4,2.8l0,-1.1c0,-0.6 -0.4,-1 -1,-1c-0.6,0 -1,0.4 -1,1l0,2.8l-1.7,1.4c-0.4,0.4 -0.5,1 -0.1,1.4c0.4,0.4 1,0.5 1.4,0.1l0.4,-0.2l0,7.5c0,0.6 0.4,1 1,1zm1,-10.3l4,-3.4l4,3.5c0,0.1 0,0.1 0,0.2l0,8l-2,0l0,-3c0,-0.6 -0.4,-1 -1,-1l-2,0c-0.6,0 -1,0.4 -1,1l0,3l-2,0l0,-8.3z" fill="#07be0f"/>
   <rect stroke="null" id="svg_24" height="2" width="4" fill="#07be0f" y="88" x="28"/>
  </g>
 </g>
</svg>